<svg width="600" height="487" viewBox="0 0 924 487" fill="none" xmlns="http://www.w3.org/2000/svg">
<path d="M922.535 1.3424C920.63 1.94803 875.716 16.2574 867.529 20.6631C860.797 24.285 738.138 70.6027 697.847 85.821C688.839 89.2232 683.397 91.2775 682.691 91.5506C679.435 92.8212 629.869 100.291 610.85 103.087C605.894 102.808 527.877 98.3727 522.411 98.2836C514.541 96.6271 475.321 87.1923 474.918 87.0973L435.818 84.657L428.055 83.4398L385.244 86.266L347.191 97.5295L347.138 97.5414L160.031 172.538L142.143 180.536L132.277 184.597L104.455 205.158L79.3496 226.8L79.2662 226.871L60.756 253.816L43.2854 289.181L28.3649 340.64L18.127 386.715L11.456 413.237L7.87376 440.472L0.0339355 486.275H6.56077L262.357 389.665L325.644 378.449L419.69 380.046L461.963 387.26L506.39 391.28L541.346 388.465L585 381.24L585.144 381.216L620.176 366.71L659.594 347.479L814.832 277.737L843.816 256.713L863.874 231.365L884.418 197.212L897.304 162.561L908.074 121.23L913.705 91.9947L919.754 65.0862L923.958 35.4279L923.966 0.878311L922.535 1.3424ZM868.681 21.987C875.746 18.187 912.395 6.32951 921.336 3.46127L910.977 30.6617L891.183 59.7074C884.717 50.6883 868.636 28.3452 864.946 23.6423C866.844 22.8526 868.142 22.2826 868.681 21.9858L868.681 21.987ZM698.725 87.2695C738.705 72.1704 838.042 34.6578 863.14 24.3856C865.917 27.9065 880.246 47.7374 890.037 61.3946L885.893 67.4864L818.744 74.2492L686.713 91.8128C689.339 90.8153 693.498 89.2478 698.727 87.2706L698.725 87.2695ZM668.475 95.867L819.046 75.8333L884.762 69.2071L861.774 104.856L845.336 124.064L834.073 119.551L716.522 109.511L618.659 103.567C630.695 101.774 653.311 98.378 668.475 95.8665L668.475 95.867ZM610.827 104.696L610.857 104.702L716.341 111.108L833.481 121.113L844.258 125.436L841.913 128.666L797.995 163.531L780.57 157.659L531.126 100.297C553.56 101.443 610.131 104.662 610.822 104.697L610.827 104.696ZM129.97 317.298L143.038 300.376L192.626 294.427L136.662 324.097C133.74 321.354 130.757 318.374 129.968 317.299L129.97 317.298ZM135.145 325.178L93.4731 365.932L107.202 346.76L128.785 318.812C130.447 320.724 133.688 323.805 135.145 325.177L135.145 325.178ZM144.397 298.596L175.665 257.449L195.459 292.463L144.397 298.596ZM177.585 256.89L255.307 271.544L197.454 292.039L177.585 256.89ZM177.425 255.21L207.85 216.605L255.419 269.911L177.425 255.21ZM453.797 94.0288L742.447 193.63L680.717 212.029L453.797 94.0288ZM723.29 277.888L612.699 225.84L679.955 213.852C683.674 220.865 714.652 265.479 723.29 277.888V277.888ZM610.741 224.551L610.164 224.605L395.653 92.2932L677.756 212.598L610.741 224.551ZM685.146 311.845L542.445 232.705L609.39 226.298L685.146 311.845ZM540.032 231.32L357.077 103.83L606.832 224.925L540.032 231.32ZM463.676 233.701L276.556 144.192L311.368 118.371L463.676 233.701ZM319.518 122.314L536.73 231.617L471.424 237.335L319.518 122.314ZM468.055 237.685L396.624 245.338C361 215.555 298.184 162.968 280.455 147.94L468.055 237.685ZM390.994 242.975L241.676 177.627L242.359 176.849L274.917 145.571C284.419 153.818 369.981 225.395 390.995 242.975L390.994 242.975ZM210.726 217.01L322.098 255.278L258.819 270.537L258.432 270.466L210.726 217.01ZM209.345 214.784L240.287 179.213L321.333 253.26L209.345 214.784ZM323.723 256.56L323.487 256.797L535.589 383.26L261.18 271.64L323.723 256.56ZM244.718 180.797L393.195 245.771L325.43 254.54L244.718 180.797ZM396.01 247.029L395.426 247.54L582.055 376.912L328.065 255.828L396.01 247.029ZM470.643 239.02L613.018 361.539C540.1 322.642 415.624 256.113 398.857 246.714L470.643 239.02ZM539.265 232.999L650.661 338.876L473.793 238.728L539.265 232.999ZM545.367 236.282L687.772 315.257L656.566 341.963L545.367 236.282ZM613.45 228.071L724.551 280.351L724.353 280.583L689.39 313.803L613.45 228.071ZM682.597 214.628L755.446 244.084L726.084 278.546C710.1 255.597 687.568 222.87 682.597 214.628V214.628ZM683.09 213.019L744.373 194.767L755.552 242.314L683.09 213.019ZM746.415 194.62L789.446 199.168L757.457 241.532L746.415 194.62ZM747.888 193.159L798.843 165.129L798.911 165.093L838.011 134.046L822.666 155.189L790.585 197.671L747.888 193.159ZM522.011 99.8508L779.887 159.161L796.158 164.647L745.059 192.749L486.076 91.4443C498.522 94.413 517.018 98.8128 522.003 99.8517L522.011 99.8508ZM474.359 88.6408L706.744 179.544L436.492 86.2954L474.359 88.6408ZM427.837 85.0604L442.788 90.2201L660.407 203.376L388.971 87.6254L427.837 85.0604ZM350.911 98.1467L385.314 87.964L595.006 217.301L350.09 98.5568L350.911 98.1467ZM347.982 99.6311L529.237 225.934L313.269 117.254L347.982 99.6311ZM161.027 173.945L335.892 103.86L310.817 116.59L274.336 143.635L146.251 180.554L161.027 173.945ZM133.448 185.951L271.733 146.086L240.707 175.886L239.569 177.192L111.416 202.219L133.448 185.951ZM105.937 206.287L108.381 204.476L237.839 179.188L207.224 214.379L82.737 226.29L105.937 206.287ZM80.779 228.096L205.827 216.126L175.266 254.904C166.326 254.786 76.8777 253.586 63.3846 253.42L80.779 228.096ZM45.2461 289.715L62.3827 255.017C71.1483 255.118 160.215 256.311 174.006 256.495L141.865 298.782L44.9727 290.653L45.2461 289.715ZM44.5175 292.227L140.704 300.29L105.801 345.48C78.1911 343.039 37.8846 339.388 31.1079 338.527L44.5175 292.227ZM30.4015 340.961L30.6595 340.088C39.2961 341.199 93.0349 345.966 104.692 346.994L74.3039 389.411H74.3115L72.0422 392.379C55.4444 390.426 25.9673 386.947 20.3447 386.228L30.4015 340.961ZM13.5002 413.494L19.9662 387.803C26.1515 388.599 55.9401 392.114 70.906 393.877L53.6025 416.564L36.5722 440.801L10.3048 437.755L13.5002 413.494ZM5.74391 484.685H2.39696L9.93311 440.676L10.1077 439.346L35.5397 442.291L5.74391 484.685ZM8.78721 483.681L54.0946 419.188L254.792 390.765L8.78721 483.681ZM261.825 388.136L55.3769 417.377L55.3921 417.359L89.9225 372.068L317.586 378.249L261.825 388.136ZM325.568 376.86H325.515L91.4201 370.507L136.873 326.053L410.466 378.303L325.568 376.86ZM138.978 324.8L196.778 294.145L411.658 376.878L138.978 324.8ZM462.308 385.694L420.067 378.486L419.338 378.344L419.361 378.314L215.011 299.63L498.96 389.007L462.308 385.694ZM506.561 389.673L501.165 387.974L269.46 276.806L258.41 272.312L257.954 272.899L491.389 384.899L199.552 293.045L257.253 272.597L258.407 272.318L258.87 271.73L269.457 276.813L540.252 386.959L506.561 389.673ZM543.833 386.437L327.379 257.38L584.108 379.764L543.833 386.437ZM587.1 378.617L402.81 250.818C435.891 268.952 570.496 340.795 617.671 365.952L587.1 378.617ZM619.757 364.943L478.475 243.355L654.842 343.218L619.757 364.943ZM659.304 345.765L635.322 357.456L657.915 343.467L690.662 315.46L802.755 281.319L659.304 345.765ZM813.785 276.362L692.615 313.275L725.985 281.575L726.645 280.804L839.354 257.795L813.785 276.362ZM862.106 230.572L842.374 255.509L728.351 278.783L757.562 244.512L862.21 230.398L862.106 230.572ZM863.282 228.624L758.968 242.696L791.715 199.323L881.875 197.714L863.282 228.624ZM895.339 162.19L882.733 196.099L792.952 197.709L824.152 156.401L897.002 155.807L895.339 162.19ZM906.07 120.966L897.403 154.192L825.327 154.779L846.563 125.538L862.485 106.93L908.568 108.01L906.07 120.966ZM917.735 64.8688L911.694 91.7424L908.871 106.408L863.759 105.357L887.476 68.5912L896.052 55.9977L918.849 56.9418L917.735 64.8688ZM921.932 35.3002L919.086 55.346L897.13 54.4375L912.862 31.335L921.939 7.56071L921.932 35.3002Z" fill="#9112B1"/>
</svg>
