<svg width="700" height="700" viewBox="0 0 700 700" fill="none" xmlns="http://www.w3.org/2000/svg">
<path d="M227.07 514.54C225.054 514.977 223.074 513.692 222.636 511.685C222.199 509.669 223.484 507.688 225.492 507.251C244.14 503.153 265.617 499.309 288.316 496.731C299.535 495.461 311.05 494.5 322.683 493.989L330.792 422.645L322.038 411.985C321.554 412.395 320.964 412.696 320.292 412.817L278.069 420.676C277.479 420.825 276.847 420.836 276.222 420.676L220.167 410.352C218.553 410.055 217.378 408.766 217.151 407.235H217.143L207.979 346.122L166.78 329.22C165.753 328.864 164.886 328.072 164.483 326.982C164.046 325.779 164.261 324.489 164.96 323.521L182.909 296.353L130.604 198.056H130.612C130.053 196.993 130.006 195.685 130.619 194.548C131.162 193.54 132.096 192.888 133.131 192.661L241.391 164.345L247.235 91.3102C247.336 89.9586 248.188 88.7164 249.52 88.154L379.91 33.826C381.738 33.0682 383.859 33.8729 384.707 35.6737L448.352 170.564L527.164 139.474C529.078 138.728 531.242 139.669 531.988 141.591C532.148 141.993 532.23 142.403 532.242 142.806L542.258 246.666L566.32 248.869C566.496 248.877 566.676 248.908 566.851 248.943L566.937 248.963C567.254 249.037 567.562 249.158 567.844 249.318C567.91 249.357 567.984 249.392 568.051 249.439C568.554 249.756 568.992 250.205 569.312 250.775C569.453 251.017 569.554 251.279 569.64 251.548C569.816 252.154 569.836 252.791 569.707 253.388L569.687 253.474C569.613 253.791 569.492 254.099 569.332 254.38C569.293 254.447 569.258 254.521 569.211 254.587C569.097 254.763 568.968 254.943 568.82 255.099L507.398 322.372L499.64 386.372C499.48 387.708 498.632 388.798 497.492 389.321L443.34 417.872C442.715 418.201 442.043 418.337 441.379 418.294H395.422C395.254 418.294 395.078 418.286 394.918 418.255L373.387 461.04L378.129 493.052C378.196 493.517 378.176 493.978 378.082 494.404C386.93 494.955 395.684 495.74 404.262 496.709C426.961 499.283 448.438 503.13 467.086 507.229C469.102 507.666 470.379 509.647 469.942 511.662C469.504 513.678 467.524 514.955 465.508 514.518C447.028 510.459 425.793 506.65 403.442 504.12C384.86 502.01 365.501 500.78 346.313 501.002H346.259C339.634 500.928 332.986 501.022 326.368 501.272C326.239 501.28 326.106 501.292 325.977 501.292C313.536 501.768 301.168 502.768 289.129 504.127C266.777 506.659 245.543 510.463 227.063 514.525L227.07 514.54ZM223.355 398.25L241.48 377.801C242.844 376.262 245.195 376.121 246.734 377.485C248.273 378.848 248.414 381.199 247.051 382.738L228.012 404.223L274.782 412.836L287.755 378.824L216.036 349.406L223.364 398.246L223.355 398.25ZM212.558 339.934C212.718 339.989 212.867 340.047 213.015 340.121L288.449 371.062L271.883 350.883C270.707 349.66 270.493 347.746 271.454 346.261L275.766 339.683L275.774 339.691C275.829 339.597 275.895 339.515 275.969 339.422C277.239 337.808 279.582 337.535 281.188 338.804L335.461 381.663L339.633 345.018H339.641C339.649 344.964 339.649 344.905 339.66 344.858C339.977 342.835 341.871 341.444 343.906 341.749L353.024 343.186C354.723 343.315 356.16 344.616 356.41 346.358L364.977 404.159L398.801 375.589C400.199 374.406 402.226 374.433 403.59 375.57L410.43 380.414C411.949 381.488 412.418 383.503 411.605 385.117H411.613L398.668 410.84H440.695L485.84 387.039L378.42 357.91C376.432 357.367 375.256 355.324 375.799 353.328C376.108 352.199 376.901 351.332 377.889 350.89L553.569 255.148L538.663 253.785C538.577 253.777 538.503 253.777 538.421 253.765L462.98 246.851C462.886 246.843 462.792 246.843 462.691 246.824L450.304 245.687L434.335 303.917C434.112 304.73 433.616 305.468 432.878 305.987C431.198 307.163 428.874 306.753 427.698 305.073L372.464 226.171C371.968 225.519 371.69 224.695 371.718 223.808L377.456 42.8981L256.726 93.1951L325.101 188.16C326.304 189.832 325.921 192.156 324.253 193.348C322.582 194.551 320.257 194.168 319.066 192.5L253.875 101.957L245.047 212.317L367.187 248.876C368.054 249.138 368.753 249.677 369.222 250.38L399.163 291.353C400.378 293.013 400.022 295.349 398.362 296.56C396.702 297.775 394.366 297.419 393.155 295.759L364.772 256.923L178.232 325.841L212.521 339.907L212.558 339.934ZM317.018 405.856L298.409 383.196L294.655 381.657L283.007 412.177L317.019 405.849L317.018 405.856ZM144.038 197.486L200.897 228.072C202.71 229.041 203.389 231.303 202.417 233.123C201.448 234.935 199.186 235.615 197.366 234.642L143.011 205.412L187.624 289.264L237.464 213.823L240.796 172.198L144.038 197.499L144.038 197.486ZM190.507 298.396C190.433 298.525 190.347 298.658 190.253 298.779L177.39 318.24L354.39 252.849L242.69 219.415L190.506 298.395L190.507 298.396ZM499.457 326.052L438.062 345.54C436.093 346.157 434.004 345.075 433.379 343.103C432.761 341.134 433.843 339.044 435.816 338.419L501.785 317.485L548.347 266.489L389.327 353.149L492.767 381.204L499.451 326.052L499.457 326.052ZM525.871 153.872L469.676 240.02L534.746 245.985L525.871 153.876V153.872ZM461.293 239.243L467.828 229.22L467.821 229.193L443.192 176.99C443.164 176.923 443.125 176.869 443.098 176.802L384.606 52.8222L379.211 222.832L429.273 294.352L443.601 242.114L403.246 161.399C402.332 159.559 403.071 157.329 404.907 156.415C406.746 155.501 408.977 156.239 409.891 158.075L449.957 238.212L461.289 239.247L461.293 239.243ZM472.613 221.891L519.054 150.696L451.574 177.313L472.613 221.899V221.891ZM303.493 377.641C303.548 377.707 303.595 377.762 303.653 377.828L331.997 412.332L334.497 390.353L279.794 347.158L279.205 348.052L303.498 377.63L303.493 377.641ZM341.348 451.563C341.153 451.477 340.965 451.376 340.79 451.254L340.782 451.247L340.727 451.208L340.68 451.168L340.672 451.161C340.262 450.864 339.926 450.489 339.672 450.059L339.633 450.004L339.626 449.997C339.403 449.594 339.251 449.165 339.188 448.727L339.18 448.7L339.172 448.661L339.165 448.606V448.586C339.11 448.122 339.145 447.633 339.278 447.168L346.68 420.504C346.887 419.758 347.313 419.122 347.864 418.657L358.309 409.836C358.301 409.79 358.289 409.75 358.289 409.708L349.469 350.161L346.641 349.711L330.262 493.711C335.61 493.563 340.977 493.516 346.332 493.571C354.5 493.477 362.664 493.645 370.777 494.02L366.175 462.969L341.366 451.563L341.348 451.563ZM349.59 437.825L363.965 426.028C365.551 424.719 367.895 424.954 369.2 426.54C370.508 428.126 370.274 430.469 368.688 431.774L349.817 447.258L367.587 455.426C367.716 455.36 367.857 455.297 367.997 455.239L403.54 384.634L401.431 383.141L353.54 423.602L349.59 437.825ZM260.344 519.005V526.47H252.88V519.005H260.344ZM439.544 519.005V526.47H432.08V519.005H439.544ZM409.677 519.005V526.47H402.213V519.005H409.677ZM379.81 519.005V526.47H372.346V519.005H379.81ZM349.943 519.005V526.47H342.479V519.005H349.943ZM320.076 519.005V526.47H312.612V519.005H320.076ZM290.209 519.005V526.47H282.745V519.005H290.209Z" fill="#438451"/>
</svg>
